<?xml version="1.0" encoding="UTF-8"?>
<svg id="Layer_2" xmlns="http://www.w3.org/2000/svg" version="1.1" viewBox="0 0 811 811">
  <!-- Generator: Adobe Illustrator 29.3.1, SVG Export Plug-In . SVG Version: 2.1.0 Build 151)  -->
  <defs>
    <style>
      .st0 {
        fill: #f0efee;
      }
    </style>
  </defs>
  <g id="Layer_1-2">
    <g>
      <g id="_Radial_Repeat_">
        <path class="st0" d="M401.5,811c-12.7,0-25.1-5.8-36-16.9-23.7-24.1-37.9-69.8-37.2-119.5h0c1.2-74.8,43.7-200.8,69-269.3.5-1.2.8-2.2,1.1-2.9,0-1.6.7-2.5,1.6-3.7l2.2-3h7.7s2.2,3.1,2.2,3.1c1.2,1.6,1.5,2.9,1.3,4.7.7,3.3,4,13.6,7.5,24.5,17.5,54.9,53.8,169.3,53.7,246.8,0,76.4-32.2,136.2-73.2,136.2h0ZM343.2,674.9c-.7,45.1,12.2,87.8,32.9,108.8,8.1,8.3,16.7,12.5,25.4,12.5,31.5,0,58.2-55.6,58.3-121.4,0-75.2-37.1-192.2-53-242.2-.6-1.8-1.1-3.6-1.6-5.2-25.1,69.8-60.9,180.6-61.9,247.5h0Z"/>
      </g>
      <g id="_Radial_Repeat_-2">
        <path class="st0" d="M152.2,702.8c-14.7,0-27.2-4.3-36.3-13.3-9-9-13.6-21.9-13.5-37.4.3-33.8,22.6-76.2,58.2-110.8,53.8-52.1,172.9-111.1,239.2-141.6,1.2-.5,2.1-1,2.8-1.3,1.2-1.1,2.2-1.3,3.8-1.5l3.7-.6,5.5,5.5-.7,3.8c-.4,2-1,3.2-2.4,4.2-1.8,2.8-6.8,12.5-12,22.6-26.5,51.2-81.6,157.8-136.5,212.5-37.2,37.1-79.5,58-111.8,58h0ZM389.8,420.6c-67.1,31.6-170.7,84.6-218.8,131.3h0c-32.4,31.4-53.5,70.7-53.7,100.2,0,11.6,3,20.6,9.2,26.8,22.2,22.3,80.5,1.9,127.1-44.6,53.2-53.1,109.7-162.2,133.8-208.8.9-1.7,1.7-3.3,2.5-4.8h0Z"/>
      </g>
      <g id="_Radial_Repeat_-3">
        <path class="st0" d="M136.5,474.7h-.3c-76.4,0-136.2-32.2-136.2-73.2s5.8-25.1,16.9-36c24.1-23.7,69.9-38.1,119.5-37.2h0c74.8,1.2,200.8,43.7,269.2,69,1.2.4,2.2.8,3,1.1,1.6,0,2.5.7,3.7,1.6l3,2.2v7.7s-3.1,2.2-3.1,2.2c-1.7,1.2-2.9,1.5-4.7,1.3-3.2.7-13.6,4-24.5,7.5-54.9,17.5-169,53.7-246.5,53.7h0ZM132.6,343.2c-43.8,0-84.9,12.8-105.3,32.9-8.3,8.1-12.4,16.7-12.4,25.4,0,31.5,55.6,58.2,121.4,58.3h.2c75.2,0,192.1-37.2,242-53,1.8-.6,3.6-1.1,5.2-1.6-69.8-25.1-180.6-60.9-247.5-61.9-1.2,0-2.3,0-3.5,0h0Z"/>
      </g>
      <g id="_Radial_Repeat_-4">
        <path class="st0" d="M409.4,415.6l-3.8-.7c-2-.4-3.2-1-4.2-2.4-2.8-1.8-12.5-6.8-22.6-12-51.2-26.5-157.7-81.6-212.4-136.5-54-54.1-73.6-119.1-44.6-148.1,8.8-8.8,21.6-13.5,36.8-13.5h.6c33.8.3,76.2,22.6,110.8,58.2,52.1,53.8,111.1,172.9,141.6,239.2.5,1.1,1,2.1,1.3,2.8,1.1,1.2,1.3,2.2,1.5,3.8l.6,3.7-5.4,5.5h0ZM158.4,117.3c-11.4,0-20.2,3.1-26.3,9.2-22.3,22.3-1.9,80.5,44.6,127.1,53.1,53.2,162.2,109.6,208.8,133.8,1.7.9,3.3,1.7,4.8,2.5-31.6-67.1-84.6-170.7-131.3-218.8h0c-31.4-32.4-70.7-53.5-100.2-53.7h-.5Z"/>
      </g>
      <g id="_Radial_Repeat_-5">
        <path class="st0" d="M405,415.4h-3.9l-2.2-3.2c-1.2-1.6-1.5-2.9-1.3-4.7-.7-3.3-4-13.6-7.5-24.5-17.5-54.9-53.8-169.3-53.7-246.8C336.4,59.8,368.6,0,409.5,0s25.1,5.8,36,16.9c23.7,24.1,37.9,69.8,37.2,119.5h0c-1.2,74.9-43.7,200.8-69,269.3-.5,1.2-.8,2.2-1.1,2.9,0,1.6-.7,2.5-1.6,3.7l-2.2,3h-3.9s0,0,0,0ZM409.5,14.9c-31.5,0-58.2,55.6-58.3,121.4,0,75.2,37.1,192.2,53,242.2.6,1.8,1.1,3.6,1.6,5.2,25.1-69.8,60.9-180.6,61.9-247.5.7-45.1-12.2-87.8-32.9-108.8-8.1-8.3-16.7-12.4-25.4-12.4h0Z"/>
      </g>
      <g id="_Radial_Repeat_-6">
        <path class="st0" d="M400.9,414.8l-5.5-5.5.7-3.8c.4-2,1-3.2,2.4-4.2,1.8-2.8,6.8-12.5,12-22.6,26.5-51.2,81.6-157.8,136.5-212.5,54.1-54,119.1-73.6,148.1-44.6,9,9,13.6,21.9,13.5,37.4-.3,33.8-22.6,76.2-58.2,110.8h0c-53.8,52.1-172.9,111.1-239.2,141.6-1.2.5-2.1,1-2.8,1.3-1.2,1.1-2.2,1.3-3.8,1.5l-3.7.6h0ZM658.9,123.1c-27.9,0-67.7,20-101.4,53.7-53.2,53.1-109.7,162.2-133.8,208.8-.9,1.7-1.7,3.3-2.5,4.8,67.1-31.6,170.7-84.6,218.8-131.2h0c32.4-31.4,53.5-70.7,53.7-100.2,0-11.6-3-20.6-9.2-26.8-6.1-6.2-15-9.1-25.6-9.1h0Z"/>
      </g>
      <g id="_Radial_Repeat_-7">
        <path class="st0" d="M678.5,482.7c-1.3,0-2.5,0-3.8,0h0c-74.8-1.2-200.8-43.7-269.2-68.9-1.2-.4-2.2-.8-3-1.1-1.6,0-2.5-.7-3.7-1.6l-3-2.2v-7.7s3.1-2.2,3.1-2.2c1.7-1.2,3-1.5,4.7-1.3,3.2-.7,13.6-4,24.5-7.5,54.9-17.5,169-53.7,246.5-53.7h.3c76.4,0,136.2,32.2,136.2,73.2s-5.8,25.1-16.9,36c-23.4,23.1-67.5,37.2-115.7,37.2h0ZM674.9,467.8c45,.9,87.8-12.2,108.8-32.9,8.3-8.1,12.4-16.7,12.4-25.4,0-31.5-55.6-58.2-121.4-58.3h-.2c-75.2,0-192.1,37.2-242,53-1.8.6-3.6,1.1-5.2,1.6,69.8,25.1,180.6,60.9,247.5,61.9h0Z"/>
      </g>
      <g id="_Radial_Repeat_-8">
        <path class="st0" d="M652.6,708.6h-.6c-33.8-.3-76.2-22.6-110.8-58.2h0c-52.1-53.8-111.1-172.9-141.6-239.2-.5-1.1-1-2.1-1.3-2.8-1.1-1.2-1.3-2.2-1.5-3.8l-.6-3.7,5.4-5.5,3.8.7c2,.4,3.2,1,4.2,2.4,2.8,1.8,12.5,6.8,22.6,12,51.2,26.5,157.7,81.6,212.4,136.5,54,54.1,73.6,119.1,44.6,148.1-8.8,8.8-21.5,13.5-36.8,13.5ZM551.9,640c31.4,32.4,70.8,53.5,100.2,53.7,11.9-.2,20.6-3,26.8-9.2,22.3-22.3,1.9-80.5-44.6-127.1-53.1-53.2-162.2-109.6-208.8-133.8-1.7-.9-3.3-1.7-4.8-2.5,31.6,67.1,84.6,170.7,131.2,218.8h0Z"/>
      </g>
    </g>
  </g>
</svg>