<?xml version="1.0" encoding="UTF-8"?>
<svg id="Layer_2" xmlns="http://www.w3.org/2000/svg" version="1.1" viewBox="0 0 1218.8 443.1">
  <!-- Generator: Adobe Illustrator 29.3.1, SVG Export Plug-In . SVG Version: 2.1.0 Build 151)  -->
  <defs>
    <style>
      .st0 {
        fill: #f0efee;
      }
    </style>
  </defs>
  <g id="Layer_1-2">
    <path class="st0" d="M842.3,443.1c-2.2-.1-4.5-.3-6.7-.4-21.3-1-42.6-1.6-63.8-3-19.4-1.2-38.8-2.9-58.2-4.8-18.6-1.9-37.2-4.1-55.7-6.6-20.5-2.8-41.1-5.7-61.5-9.4-30.8-5.6-61.5-11.4-92.1-18-46.8-10-92.9-22.5-138.6-36.8-53.2-16.7-105.4-36-156.1-59.5-35.3-16.4-69.6-34.6-102-56.1-23.1-15.3-45-32.1-64.3-52-14.4-14.8-27.1-30.9-35.5-49.9C2.7,134.7-.3,122.4,0,109.3c.4-16.4,6.1-30.9,15.9-44,10.2-13.6,23.3-23.9,37.7-32.6,22.2-13.5,46.4-22.6,71.2-29.9,26.7-7.8,37.4,1.5,16.2,12.2-14.1,7.1-27.1,15.6-37.8,27.3-9.4,10.2-15.9,22-17.8,35.9-1.7,12.2.5,24,5.2,35.3,6.3,15.4,16.1,28.4,27.4,40.4,19.2,20.4,41.5,36.9,65.1,51.9,31.7,20.1,65.2,36.7,99.7,51.4,54.5,23.3,110.8,41.6,168.1,56.5,37,9.7,74.4,18.1,112.1,24.5,27.5,4.7,55.1,8.7,82.7,12.5,28.2,3.9,56.6,6.3,85,7.9,16,.9,32,1.4,48,1.9,11.7.3,23.4.6,35,.2,20.9-.6,41.9-1.5,62.8-2.8,26.4-1.7,52.7-5.3,78.7-10.6,26.2-5.4,51.8-12.5,76.1-23.9,15.2-7.1,29.3-15.7,41.2-27.7,9.9-10,17.1-21.6,19.7-35.7,2.5-13.5,1-22.8-4.3-35.2-6.4-15.1-16.1-27.9-27.2-39.7-19.2-20.4-41.6-36.9-65.2-51.8-33.6-21.2-69-37.3-105.6-52.7-52.9-19.8-51.2-28.6-28-22.8,56.9,18.2,112.6,39.5,166.3,65.8,34.8,17,68.4,36,99.8,58.7,19.8,14.3,38.5,29.9,54.8,48.2,12.8,14.4,23.8,29.9,30.5,48.1,7.5,20.3,7.8,40.5-1.5,60.5-6.9,14.8-17.8,26.3-30.5,36.2-17.5,13.6-37.2,23.2-57.8,31-27.1,10.4-55.1,17.6-83.7,22.5-19.5,3.4-39.2,6.3-58.8,8.4-20.3,2.2-40.8,3.2-61.2,4.5-9.3.6-18.7.6-28,.9-.5,0-.9.2-1.4.3h-48,0Z"/>
  </g>
</svg>