<?xml version="1.0" encoding="UTF-8"?>
<svg id="Layer_1" data-name="Layer 1" xmlns="http://www.w3.org/2000/svg" viewBox="0 0 1654.04 431.87">
  <defs>
    <style>
      .cls-1 {
        fill: #231f20;
      }
    </style>
  </defs>
  <g>
    <path class="cls-1" d="M451.07,383.44v-108.01h25.59v42.54h3.66l14.46-42.54h27.75l-18.61,52.68v1.33l20.6,54h-28.08l-15.95-43.2h-3.82v43.2h-25.59,0Z"/>
    <path class="cls-1" d="M528.62,275.43h25.59v85.08h25.36v22.93h-50.94v-108.01h0Z"/>
    <path class="cls-1" d="M584.47,361.34v-63.31c0-14.29,7.65-22.6,19.28-22.6h28.91c13.63,0,19.94,8.97,19.94,23.6v62.15c0,13.63-6.98,22.27-20.11,22.27h-28.08c-11.8,0-19.94-7.48-19.94-22.1h0ZM627.18,360.51v-61.98h-17.28v61.98h17.28Z"/>
    <path class="cls-1" d="M724.79,338.75v22.43c0,11.13-3.99,22.27-20.27,22.27h-24.92c-12.63,0-20.44-6.64-20.44-21.43v-67.48c0-13.79,7.98-19.11,19.77-19.11h25.26c16.12,0,20.6,8.64,20.6,23.6v16.28h-25.09v-16.79h-15.12v61.98h15.12v-21.77h25.09Z"/>
    <path class="cls-1" d="M730.67,383.44v-108.01h25.59v42.54h3.66l14.46-42.54h27.75l-6.36,18-12.25,34.68v1.33l20.6,54h-28.08l-15.95-43.2h-3.82v43.2h-25.59,0Z"/>
    <path class="cls-1" d="M800.53,275.43h25.09l6.82,81.26h1.33l9.8-81.26h26.92l10.97,81.26h1.16l6.64-81.26h24.92l-13.79,108.01h-34.23l-8.14-67.63h-1.16l-8.14,67.63h-34.23l-13.96-108.01h0Z"/>
    <path class="cls-1" d="M917.9,361.34v-63.31c0-14.29,7.65-22.6,19.28-22.6h28.91c13.63,0,19.94,8.97,19.94,23.6v62.15c0,13.63-6.98,22.27-20.11,22.27h-28.08c-11.8,0-19.94-7.48-19.94-22.1h0ZM960.6,360.51v-61.98h-17.28v61.98h17.28Z"/>
    <path class="cls-1" d="M992.59,383.44v-108.01h51.51c10.8,0,14.79,6.15,14.79,20.6v34.73c0,11.3-2.5,17.28-8.81,19.44l9.64,33.23h-25.42l-8.48-30.91h-7.65v30.91h-25.59ZM1033.97,329.93v-31.4h-15.78v31.4h15.78Z"/>
    <path class="cls-1" d="M1065.26,383.44v-108.01h25.59v42.54h3.66l14.46-42.54h27.75l-18.61,52.68v1.33l20.6,54h-28.08l-15.95-43.2h-3.82v43.2h-25.59Z"/>
    <path class="cls-1" d="M1202.97,361.18c0,13.79-6.64,22.27-19.61,22.27h-25.93c-11.96,0-20.11-7.48-20.11-22.27v-15.62h25.26v15.29h15.45v-13.96l-28.91-14.62c-8.81-5.15-11.8-8.97-11.8-20.27v-16.45c0-14.79,7.81-20.11,20.27-20.11h24.43c15.45,0,20.94,7.47,20.94,23.6v12.96h-24.92v-13.79h-15.45v12.3l28.58,13.96c9.14,4.82,11.8,8.81,11.8,20.6v16.12h0Z"/>
  </g>
  <g>
    <path class="cls-1" d="M883.74,66.32v36.08c0,24.63-12.61,40.25-36.34,40.25h-117.57c1.78-52.35,44.79-94.23,97.55-94.23,21,0,40.44,6.63,56.36,17.9Z"/>
    <path class="cls-1" d="M922.26,150.1c-3.09-1.84-9.02.24-13.91,2.9-3.15,1.72-6.04,3.9-8.44,6.58-2.53,2.84-4.51,6.12-5.95,9.63-1.66,4.02-2.63,8.32-3.11,12.64-.26,2.32-.36,4.64-.36,6.98v31.14c15.8-13.39,27.27-31.72,32.05-52.61,0-.07.03-.14.04-.2.04-.16.07-.35.11-.54.16-.76.35-1.65.53-2.62.07-.32.12-.65.19-.97.12-.66.23-1.35.34-2.04.68-4.52.88-9.48-1.49-10.88h0Z"/>
    <path class="cls-1" d="M922.26,141.95c-3.09,1.84-9.02-.24-13.91-2.9-3.15-1.72-6.04-3.9-8.44-6.58-2.53-2.84-4.51-6.12-5.95-9.63-1.66-4.02-2.63-8.32-3.11-12.64-.26-2.32-.36-4.64-.36-6.98v-31.14c15.8,13.39,27.27,31.72,32.05,52.61,0,.07.03.14.04.2.04.16.07.35.11.54.16.76.35,1.65.53,2.62.07.32.12.65.19.97.12.66.23,1.35.34,2.04.68,4.52.88,9.48-1.49,10.88h0Z"/>
    <path class="cls-1" d="M883.74,192.05v33.67c-15.92,11.27-35.36,17.9-56.36,17.9-12.97,0-25.86-2.6-37.79-7.61-.58-.24-1.15-.49-1.73-.75-.39-.17-.39-.17-.01,0-.85-.38-9.54-4.29-15.23-9.66-8.5-8.01-13.63-19.5-13.63-32.12,0-11.58,4.41-22.13,11.65-30.06.76-.83,1.58-1.6,2.37-2.41,12.26-12.67,40.81-11.63,42.7-11.63h32.01c24.63,0,36.04,16.22,36.04,42.65l-.02.02Z"/>
  </g>
</svg>